# Blender v2.90.0 OBJ File: ''
# www.blender.org
mtllib Dolphin.mtl
o node_id30_mesh_id31
v 0.460386 1.696264 -0.449788
v 0.470167 1.758434 -0.509816
v 0.462497 1.715674 -0.428889
v 0.407860 1.724829 -0.587329
v 0.668208 -2.199674 5.767813
v 1.166578 -2.525016 5.797326
v 0.629058 0.600448 2.260181
v -0.049068 -0.513223 4.226661
v 0.488719 1.091238 0.326463
v 0.474770 0.621770 3.732851
v -0.047082 -0.128495 5.001208
v 0.380950 -1.438209 5.381670
v -0.042360 -2.154737 5.860386
v -0.042320 1.588499 -1.621306
v -0.042493 1.804088 -1.197257
v -0.048118 1.243639 -0.270921
v 0.633376 1.635216 1.815854
v 0.580371 0.992854 0.954115
v -0.052434 2.407775 -0.439537
v 0.510472 1.082886 0.376349
v 0.639647 1.097705 0.856171
v 0.512446 0.877142 0.897585
v 1.236415 0.525191 0.590086
v 1.419734 0.402749 0.763818
v 1.522399 0.245830 1.229701
v -0.015545 1.892466 3.101783
v 0.413890 2.247328 -0.393988
v -0.044497 -2.200893 5.804598
v 0.650078 -2.195920 5.777687
v -0.051122 2.605527 3.650975
v -0.035546 2.255250 2.063368
v 0.517809 1.260176 0.333386
v 0.386198 1.691060 -0.556445
v 0.158487 -0.983074 5.081384
v 0.435111 1.176039 0.386198
v 0.479494 1.107920 0.323296
v -0.556816 1.696264 -0.449788
v -0.566597 1.758434 -0.509816
v -0.482628 1.691060 -0.556445
v -0.558927 1.715674 -0.428889
v -0.504291 1.724829 -0.587329
v -0.764639 -2.199674 5.767813
v -1.263008 -2.525016 5.797326
v -0.725489 0.600447 2.260181
v -0.049349 -0.128495 5.001208
v -0.047363 -0.513223 4.226661
v -0.571201 0.621770 3.732851
v -0.254917 -0.983074 5.081384
v -0.477380 -1.438209 5.381670
v -0.054071 -2.154737 5.860386
v -0.054111 1.588499 -1.621306
v -0.053938 1.804088 -1.197257
v -0.048312 1.243639 -0.270921
v -0.676801 0.992854 0.954115
v -0.043997 2.407775 -0.439537
v -0.510321 2.247328 -0.393987
v -0.606903 1.082886 0.376349
v -1.516107 0.402790 0.763695
v -1.590417 0.249561 1.263815
v -0.729807 1.635216 1.815854
v -0.080886 1.892466 3.101783
v -0.677076 1.010313 0.927118
v -1.449748 0.449705 0.674230
v -0.051934 -2.200893 5.804598
v -0.614240 1.260176 0.333386
v -0.746509 -2.195920 5.777687
v -0.045309 2.605527 3.650975
v -0.060885 2.255250 2.063368
v -0.585150 1.091238 0.326463
v -0.531542 1.176039 0.386198
v -0.575925 1.107920 0.323296
vt 0.865070 0.298208
vt 0.876569 0.178338
vt 0.798880 0.211867
vt 0.907045 0.729873
vt 0.901523 0.585962
vt 0.881033 0.737518
vt 0.522830 0.645700
vt 0.379851 0.747730
vt 0.504283 0.773614
vt 0.687736 0.777749
vt 0.823761 0.477263
vt 0.685013 0.584936
vt 0.225341 0.800493
vt 0.696723 0.414999
vt 0.577341 0.869365
vt 0.256995 0.893916
vt 0.244124 0.889419
vt 0.170918 0.946501
vt 0.287306 0.989031
vt 0.296217 0.938324
vt 0.824682 0.368551
vt 0.123063 0.920633
vt 0.324072 0.799491
vt 0.259385 0.884111
vt 0.963363 0.649180
vt 0.951529 0.745669
vt 0.760490 0.830238
vt 0.841649 0.619626
vt 0.813177 0.764634
vt 0.946303 0.155383
vt 0.983991 0.304862
vt 0.972985 0.221263
vt 0.319130 0.782912
vt 0.789969 0.202601
vt 0.824162 0.125202
vt 0.704197 0.135675
vt 0.225724 0.492385
vt 0.250543 0.617033
vt 0.353792 0.474932
vt 0.223157 0.308903
vt 0.415940 0.313274
vt 0.524796 0.175452
vt 0.196461 0.771086
vt 0.585971 0.303017
vt 0.130601 0.418510
vt 0.049993 0.824260
vt 0.107699 0.751544
vt 0.103313 0.738635
vt 0.059241 0.699035
vt 0.008460 0.707512
vt 0.633511 0.175460
vt 0.075451 0.872334
vt 0.198308 0.672368
vt 0.113138 0.736330
vt 0.365750 0.052356
vt 0.253313 0.054479
vt 0.265623 0.111298
vt 0.414240 0.110884
vt 0.171292 0.235703
vt 0.234736 0.192885
vt 0.379653 0.163999
vt 0.782062 0.028422
vt 0.698560 0.016701
vt 0.847712 0.055666
vt 0.214843 0.677452
vn 0.9587 0.0063 0.2842
vn -0.2088 -0.5008 -0.8400
vn 0.1188 -0.5270 -0.8415
vn -0.6064 -0.6159 0.5030
vn 0.7634 0.2607 0.5909
vn 0.5026 0.7788 0.3754
vn 0.8980 -0.4290 -0.0978
vn 0.8082 -0.5390 -0.2375
vn 0.9240 0.3704 0.0952
vn 0.9090 0.3607 0.2089
vn 0.8073 0.2883 0.5148
vn 0.9010 0.2476 0.3562
vn 0.2998 -0.9052 -0.3011
vn 0.1617 -0.8436 -0.5120
vn 0.7642 0.6268 0.1521
vn 0.9785 0.0280 -0.2041
vn 0.7914 -0.4158 -0.4481
vn 0.6803 0.5911 -0.4333
vn 0.3588 0.8900 -0.2814
vn 0.7391 0.6262 -0.2480
vn 0.8761 0.3178 0.3626
vn 0.9033 -0.0358 -0.4274
vn 0.9424 -0.1314 -0.3076
vn 0.9380 -0.3002 -0.1735
vn -0.5010 -0.8428 -0.1966
vn -0.5171 -0.7988 -0.3076
vn 0.9987 0.0497 -0.0065
vn 0.6595 0.7480 0.0749
vn 0.6927 0.7105 -0.1240
vn -0.5641 0.8137 0.1404
vn 0.2738 0.5126 0.8138
vn -0.1204 -0.2848 -0.9510
vn 0.2378 -0.8652 -0.4414
vn -0.1179 -0.5266 -0.8419
vn 0.2055 -0.5012 -0.8405
vn -0.9573 0.0059 0.2892
vn -0.9231 0.3706 0.1024
vn -0.8022 -0.5489 -0.2348
vn -0.8982 -0.4286 -0.0976
vn -0.9086 0.3613 0.2095
vn -0.9012 0.2527 0.3522
vn -0.8075 0.2892 0.5142
vn -0.3081 -0.9118 -0.2714
vn -0.1633 -0.8568 -0.4892
vn -0.7643 0.6269 0.1512
vn -0.6796 0.5975 -0.4256
vn -0.7954 -0.4077 -0.4484
vn -0.9773 0.0434 -0.2075
vn -0.7406 0.6184 -0.2631
vn -0.3477 0.8885 -0.2994
vn -0.8755 0.3183 0.3635
vn -0.9034 -0.0336 -0.4275
vn -0.9447 -0.1284 -0.3017
vn -0.9413 -0.2932 -0.1675
vn 0.6078 -0.7887 -0.0924
vn 0.5897 -0.8072 -0.0267
vn -0.5244 0.7024 0.4813
vn -0.4585 0.7631 0.4555
vn -0.9988 0.0492 -0.0064
vn -0.6320 0.7642 0.1287
vn -0.5839 0.7979 0.1496
vn 0.1204 -0.2848 -0.9510
vn -0.2709 0.5151 0.8132
vn 0.5641 0.8137 0.1403
vn -0.2459 -0.8671 -0.4332
usemtl Material_49
s 1
f 12/1/1 5/2/2 28/3/3
f 22/4/4 25/5/5 21/6/6
f 7/7/7 18/8/8 17/9/9
f 26/10/10 11/11/11 10/12/12
f 16/13/13 18/8/8 8/14/14
f 31/15/15 26/10/10 17/9/9
f 2/16/16 33/17/17 15/18/18
f 19/19/19 27/20/20 15/18/18
f 10/12/12 34/21/21 7/7/7
f 14/22/22 15/18/18 33/17/17
f 33/17/17 32/23/23 14/22/22
f 27/20/20 2/16/16 15/18/18
f 27/20/20 32/23/23 1/24/24
f 32/23/23 17/9/9 18/8/8
f 23/25/25 22/4/4 20/26/26
f 25/5/5 22/4/4 23/25/25
f 32/23/23 27/20/20 17/9/9
f 17/9/9 27/20/20 31/15/15
f 8/14/14 18/8/8 7/7/7
f 8/14/14 7/7/7 34/21/21
f 10/12/12 17/9/9 26/10/10
f 30/27/27 26/10/10 31/15/15
f 11/11/11 34/21/21 10/12/12
f 32/23/23 33/17/17 1/24/24
f 24/28/28 35/29/29 21/6/6
f 24/28/28 21/6/6 25/5/5
f 6/30/30 13/31/31 29/32/32
f 34/21/21 13/31/31 12/1/1
f 13/31/31 6/30/30 12/1/1
f 6/30/30 5/2/2 12/1/1
f 28/3/3 8/14/14 12/1/1
f 13/31/31 34/21/21 11/11/11
f 19/19/19 31/15/15 27/20/20
f 8/14/14 34/21/21 12/1/1
f 2/16/16 27/20/20 1/24/24
f 10/12/12 7/7/7 17/9/9
f 9/33/33 18/8/8 16/13/13
f 32/23/23 9/33/33 16/13/13
f 16/13/13 14/22/22 32/23/23
f 64/34/34 42/35/35 49/36/36
f 60/37/37 54/38/38 44/39/39
f 61/40/40 47/41/41 45/42/42
f 53/43/43 46/44/44 54/38/38
f 68/45/45 60/37/37 61/40/40
f 52/46/46 39/47/47 38/48/48
f 52/46/46 56/49/49 55/50/50
f 44/39/39 48/51/51 47/41/41
f 52/46/46 51/52/52 39/47/47
f 39/47/47 51/52/52 65/53/53
f 38/48/48 56/49/49 52/46/46
f 37/54/54 65/53/53 56/49/49
f 54/38/38 60/37/37 65/53/53
f 63/55/55 57/56/56 62/57/57
f 60/37/37 56/49/49 65/53/53
f 62/57/57 59/58/58 63/55/55
f 56/49/49 60/37/37 68/45/45
f 44/39/39 54/38/38 46/44/44
f 44/39/39 46/44/44 48/51/51
f 47/41/41 61/40/40 60/37/37
f 67/59/59 68/45/45 61/40/40
f 48/51/51 45/42/42 47/41/41
f 37/54/54 39/47/47 65/53/53
f 62/57/57 70/60/60 58/61/61
f 58/61/61 59/58/58 62/57/57
f 66/62/62 50/63/63 43/64/64
f 48/51/51 49/36/36 50/63/63
f 49/36/36 43/64/64 50/63/63
f 49/36/36 42/35/35 43/64/64
f 64/34/34 49/36/36 46/44/44
f 50/63/63 45/42/42 48/51/51
f 55/50/50 56/49/49 68/45/45
f 49/36/36 48/51/51 46/44/44
f 37/54/54 56/49/49 38/48/48
f 60/37/37 44/39/39 47/41/41
f 69/65/65 53/43/43 54/38/38
f 65/53/53 53/43/43 69/65/65
f 65/53/53 51/52/52 53/43/43
l 4 3
l 36 20
l 41 40
l 57 71
