# Alias OBJ Model File
# Exported from SketchUp, (c) 2000-2012 Trimble Navigation Limited
# File units = meters

mtllib House.mtl

g Mesh1 Model

usemtl Color_M02
v 1 0 -1
vt -39.3701 39.3701
vn 0 -1 -0
v 0 0 -0
vt 0 0
v 0 0 -1
vt 0 39.3701
f 1/1/1 2/2/1 3/3/1

v 1 0 -0
vt -39.3701 0
f 2/2/1 1/1/1 4/4/1

vt 39.3701 0
vn 1 0 -0
v 1 1 -0
f 1/5/2 5/3/2 4/2/2

v 1 1 -1
vt 39.3701 39.3701
f 5/3/2 1/5/2 6/6/2

vn 0 0 -1
v 0 1 -1
f 1/4/3 7/3/3 6/1/3

f 7/3/3 1/4/3 3/2/3

vn -1 0 -0
f 2/2/4 7/1/4 3/4/4

v 0 1 -0
f 7/1/4 2/2/4 8/3/4

vn 0 0 1
f 2/2/5 5/6/5 8/3/5

f 5/6/5 2/2/5 4/5/5

v 0.5 1.49 -0
vt 19.685 58.6614
f 8/3/5 5/6/5 9/7/5

usemtl Color_A05
vt 0 -0.562372
vn 0.699929 0.714213 -0
v 0.5 1.49 -1
vt 39.3701 26.9995
vt 0 26.9995
f 5/8/6 10/9/6 9/10/6

vt 39.3701 -0.562372
f 10/9/6 5/8/6 6/11/6

usemtl Color_M02
vt -19.685 58.6614
f 6/1/3 7/3/3 10/12/3

usemtl Color_A05
vt -39.3701 27.5562
vn -0.699929 0.714213 -0
vt 0 55.1181
vt -39.3701 55.1181
f 7/13/7 9/14/7 10/15/7

vt 0 27.5562
f 9/14/7 7/13/7 8/16/7

