# Alias OBJ Model File
# Exported from SketchUp, (c) 2000-2012 Trimble Navigation Limited
# File units = meters

mtllib Untitled.mtl

g Mesh1 Model

usemtl FrontColor
v 1 1 -6.12323e-17
vt 39.3701 39.3701
vn 0 6.12323e-17 1
v 0 0 -0
vt 0 0
v 1 0 -0
vt 39.3701 0
f 1/1/1 2/2/1 3/3/1

v 0 1 -6.12323e-17
vt 0 39.3701
f 2/2/1 1/1/1 4/4/1

vt 39.3701 3.9443e-31
vn 0 1 -6.12323e-17
v 0 1 -1
vt 0 3.9443e-31
f 1/5/2 5/4/2 4/6/2

v 1 1 -1
f 5/4/2 1/5/2 6/1/2

vt 2.41072e-15 39.3701
vn 1 0 -0
v 1 0 -1
f 1/7/3 7/3/3 6/1/3

f 7/3/3 1/7/3 3/2/3

vt -39.3701 0
vn 0 -1 -0
v 0.68 0 -1
vt -26.7717 39.3701
vt -39.3701 39.3701
f 3/8/4 8/9/4 7/10/4

f 2/2/4 8/9/4 3/8/4

v 0 0 -1
f 8/9/4 2/2/4 9/4/4

vt -2.41072e-15 39.3701
vn -1 0 -0
f 4/11/5 9/8/5 2/2/5

f 9/8/5 4/11/5 5/10/5

vn 0 -1.80478e-16 -1
vt -26.7717 7.10543e-15
vt 0 7.10543e-15
f 5/4/6 8/12/6 9/13/6

vt -39.3701 7.10543e-15
f 8/12/6 5/4/6 7/14/6

f 7/14/6 5/4/6 6/10/6

